<?xml version="1.0" encoding="UTF-8" standalone="no"?>
<svg
   version="1.1"
   width="256"
   height="256"
   viewBox="0 0 256 256"
   xml:space="preserve"
   id="svg9"
   sodipodi:docname="sun_light.svg"
   inkscape:version="1.4.2 (ebf0e940, 2025-05-08)"
   xmlns:inkscape="http://www.inkscape.org/namespaces/inkscape"
   xmlns:sodipodi="http://sodipodi.sourceforge.net/DTD/sodipodi-0.dtd"
   xmlns="http://www.w3.org/2000/svg"
   xmlns:svg="http://www.w3.org/2000/svg"><defs
   id="defs9">
	
	
	
	
	
	
	
	
	
</defs><sodipodi:namedview
   id="namedview9"
   pagecolor="#505050"
   bordercolor="#ffffff"
   borderopacity="1"
   inkscape:showpageshadow="0"
   inkscape:pageopacity="0"
   inkscape:pagecheckerboard="1"
   inkscape:deskcolor="#505050"
   inkscape:zoom="0.32455876"
   inkscape:cx="-30.811061"
   inkscape:cy="238.78573"
   inkscape:window-width="1272"
   inkscape:window-height="710"
   inkscape:window-x="0"
   inkscape:window-y="38"
   inkscape:window-maximized="0"
   inkscape:current-layer="svg9" />
<path
   d="m 127.85659,192.48659 c -35.636417,0 -64.629997,-28.99077 -64.629997,-64.63 0,-35.636417 28.99358,-64.629997 64.629997,-64.629997 35.63923,0 64.63,28.99358 64.63,64.629997 0,35.63923 -28.99077,64.63 -64.63,64.63 z"
   style="fill:#c6a0f6;fill-rule:nonzero;stroke:none;stroke-width:2.81;stroke-linecap:butt;stroke-linejoin:miter;stroke-miterlimit:10;stroke-dasharray:none;fill-opacity:1"
   stroke-linecap="round"
   id="path1" /><path
   d="m 110.01871,50.890693 c -0.82052,0 -1.61013,-0.35687 -2.14965,-1.00036 -0.67159,-0.79804 -0.84581,-1.90237 -0.45241,-2.86901 L 125.25453,3.1572234 c 0.42993,-1.05656 1.45839,-1.75063 2.60206,-1.75063 1.14367,0 2.17213,0.69407 2.60206,1.75063 l 17.84069,43.8640996 c 0.3934,0.96664 0.21637,2.07097 -0.45522,2.86901 -0.66878,0.79804 -1.73096,1.16334 -2.74818,0.93573 -11.36645,-2.47561 -23.12068,-2.47561 -34.48151,0 -0.1967,0.04496 -0.39621,0.06463 -0.59572,0.06463 z"
   style="fill:#c6a0f6;fill-rule:nonzero;stroke:none;stroke-width:2.81;stroke-linecap:butt;stroke-linejoin:miter;stroke-miterlimit:10;stroke-dasharray:none;fill-opacity:1"
   stroke-linecap="round"
   id="path2" /><path
   d="m 127.85659,254.30659 c -1.14367,0 -2.17213,-0.69126 -2.60206,-1.75063 l -17.83788,-43.8641 c -0.3934,-0.96664 -0.21918,-2.07097 0.45241,-2.86901 0.67159,-0.79804 1.72815,-1.15772 2.74818,-0.93573 11.36083,2.47842 23.11506,2.47842 34.48151,0 1.02003,-0.2248 2.0794,0.1405 2.74818,0.93573 0.67159,0.79523 0.84862,1.90237 0.45522,2.86901 l -17.84069,43.8641 c -0.43274,1.05937 -1.4612,1.75063 -2.60487,1.75063 z"
   style="fill:#c6a0f6;fill-rule:nonzero;stroke:none;stroke-width:2.81;stroke-linecap:butt;stroke-linejoin:miter;stroke-miterlimit:10;stroke-dasharray:none;fill-opacity:1"
   stroke-linecap="round"
   id="path3" /><path
   d="m 48.080693,148.50728 c -0.35687,0 -0.71655,-0.0674 -1.05937,-0.20513 L 3.1572234,130.46146 c -1.05656,-0.43274 -1.75063,-1.4612 -1.75063,-2.60487 0,-1.14367 0.69407,-2.17213 1.75344,-2.60206 L 47.024133,107.41665 c 0.96383,-0.3934 2.07097,-0.21918 2.86901,0.45241 0.79804,0.67159 1.15772,1.73096 0.93573,2.74818 -1.23921,5.67901 -1.86865,11.48166 -1.86865,17.23935 0,5.75769 0.62944,11.55753 1.86865,17.24216 0.22199,1.01722 -0.13769,2.07659 -0.93573,2.74818 -0.51704,0.43555 -1.16053,0.66035 -1.81245,0.66035 z"
   style="fill:#c6a0f6;fill-rule:nonzero;stroke:none;stroke-width:2.81;stroke-linecap:butt;stroke-linejoin:miter;stroke-miterlimit:10;stroke-dasharray:none;fill-opacity:1"
   stroke-linecap="round"
   id="path4" /><path
   d="m 207.63249,148.50728 c -0.64911,0 -1.29541,-0.2248 -1.80964,-0.66035 -0.79804,-0.66878 -1.15772,-1.72815 -0.93573,-2.74818 1.2364,-5.68182 1.86584,-11.48447 1.86584,-17.24216 0,-5.75769 -0.62944,-11.56034 -1.86584,-17.23935 -0.22199,-1.01722 0.13769,-2.07659 0.93573,-2.74818 0.79523,-0.67159 1.89956,-0.84581 2.86901,-0.45241 l 43.8641,17.83788 c 1.05937,0.42993 1.75063,1.45839 1.75063,2.60206 0,1.14367 -0.69126,2.17213 -1.75063,2.60206 l -43.8641,17.84069 c -0.34282,0.13769 -0.7025,0.20794 -1.05937,0.20794 z"
   style="fill:#c6a0f6;fill-rule:nonzero;stroke:none;stroke-width:2.81;stroke-linecap:butt;stroke-linejoin:miter;stroke-miterlimit:10;stroke-dasharray:none;fill-opacity:1"
   stroke-linecap="round"
   id="path5" /><path
   d="m 58.834563,86.872743 c -0.07868,0 -0.16017,-0.0028 -0.23885,-0.01124 -1.0397,-0.08992 -1.94452,-0.74746 -2.34916,-1.70567 l -18.40269,-43.63087 c -0.44398,-1.05375 -0.20513,-2.27048 0.60134,-3.07976 0.80928,-0.80928 2.02882,-1.04251 3.07976,-0.60134 l 43.63087,18.40269 c 0.96102,0.40464 1.61856,1.30946 1.70567,2.34635 0.08992,1.0397 -0.40464,2.04287 -1.28136,2.60487 -4.89783,3.14439 -9.4416,6.8002 -13.51329,10.86908 -4.06888,4.07169 -7.7275,8.61546 -10.86908,13.51329 -0.51985,0.80928 -1.41343,1.2926 -2.36321,1.2926 z"
   style="fill:#c6a0f6;fill-rule:nonzero;stroke:none;stroke-width:2.81;stroke-linecap:butt;stroke-linejoin:miter;stroke-miterlimit:10;stroke-dasharray:none;fill-opacity:1"
   stroke-linecap="round"
   id="path6" /><path
   d="m 215.28131,218.09131 c -0.36811,0 -0.73903,-0.0702 -1.09309,-0.21918 l -43.62806,-18.40269 c -0.96102,-0.40745 -1.61856,-1.31227 -1.70567,-2.34916 -0.0899,-1.0397 0.40464,-2.04287 1.28136,-2.60768 4.90345,-3.15001 9.45003,-6.80863 13.51048,-10.86908 v 0 c 4.06045,-4.05764 7.71907,-8.60703 10.86908,-13.51048 0.56481,-0.87672 1.55393,-1.37409 2.60768,-1.28136 1.03689,0.0871 1.94171,0.74746 2.34916,1.70567 l 18.40269,43.62806 c 0.44117,1.05375 0.20513,2.27329 -0.60415,3.07976 -0.53952,0.54233 -1.25888,0.82614 -1.98948,0.82614 z"
   style="fill:#c6a0f6;fill-rule:nonzero;stroke:none;stroke-width:2.81;stroke-linecap:butt;stroke-linejoin:miter;stroke-miterlimit:10;stroke-dasharray:none;fill-opacity:1"
   stroke-linecap="round"
   id="path7" /><path
   d="m 196.87862,86.869933 c -0.95259,0 -1.84336,-0.48051 -2.36602,-1.28979 -3.15001,-4.90626 -6.80863,-9.45003 -10.86908,-13.51329 v 0 c -4.06607,-4.06607 -8.61265,-7.72469 -13.51048,-10.86908 -0.87953,-0.562 -1.37128,-1.56517 -1.28136,-2.60487 0.0871,-1.0397 0.74746,-1.94171 1.70567,-2.34635 l 43.62806,-18.40269 c 1.04813,-0.44398 2.27048,-0.20794 3.07976,0.60134 0.80928,0.80928 1.04532,2.02601 0.60415,3.07976 l -18.40269,43.63087 c -0.40745,0.96102 -1.31227,1.61856 -2.34916,1.70567 -0.0787,0.0056 -0.15736,0.0084 -0.23885,0.0084 z"
   style="fill:#c6a0f6;fill-rule:nonzero;stroke:none;stroke-width:2.81;stroke-linecap:butt;stroke-linejoin:miter;stroke-miterlimit:10;stroke-dasharray:none;fill-opacity:1"
   stroke-linecap="round"
   id="path8" /><path
   d="m 40.429063,218.09131 c -0.7306,0 -1.44996,-0.28662 -1.98667,-0.82333 -0.80928,-0.80928 -1.04813,-2.02601 -0.60134,-3.07976 l 18.40269,-43.62806 c 0.40464,-0.96102 1.30946,-1.61856 2.34635,-1.70567 1.0397,-0.12083 2.04287,0.40464 2.60487,1.28136 3.14439,4.89502 6.80301,9.4416 10.86908,13.51048 v 0 c 4.06326,4.06326 8.60703,7.71907 13.51329,10.86908 0.87672,0.56481 1.37128,1.56798 1.28136,2.60768 -0.08992,1.03689 -0.74746,1.94171 -1.70567,2.34916 l -43.63087,18.40269 c -0.35406,0.14612 -0.72217,0.21637 -1.09309,0.21637 z"
   style="fill:#c6a0f6;fill-rule:nonzero;stroke:none;stroke-width:2.81;stroke-linecap:butt;stroke-linejoin:miter;stroke-miterlimit:10;stroke-dasharray:none;fill-opacity:1"
   stroke-linecap="round"
   id="path9" />
</svg>
